# xmcd CD database file
#
# Track frame offsets:
#	150
#	25596
#	39468
#	53479
#	74163
#	85731
#	107868
#	124057
#	145283
#	169839
#	186863
#	204088
#	226851
#	242485
#
# Disc length: 3556 seconds
#
# Revision: 0
# Processed by: cddbd v1.5.2PL0 Copyright (c) Steve Scherf et al.
# Submitted via: CDex 1.70beta2
#
DISCID=b60de20e
DTITLE=Ben Sidran - Groove Master Cool Side
DYEAR=1900
DGENRE=Jazz
TTITLE0=Walk Pretty
TTITLE1=Solar
TTITLE2=Making Whoopie
TTITLE3=Mr. P's Shuffle
TTITLE4=Big Nick
TTITLE5=Get Happy
TTITLE6=Nardis
TTITLE7=The Winter Of My Discontent
TTITLE8=Sentimental Journey
TTITLE9=I Wanna Be A Bebopper
TTITLE10=Nostalgia In Times Square
TTITLE11=Look Here (Live)
TTITLE12=It Should Have Been Me (Live)
TTITLE13=Straight No Chaser (Live)
EXTD=
EXTT0=
EXTT1=
EXTT2=
EXTT3=
EXTT4=
EXTT5=
EXTT6=
EXTT7=
EXTT8=
EXTT9=
EXTT10=
EXTT11=
EXTT12=
EXTT13=
PLAYORDER=
